<!DOCTYPE svg PUBLIC "-//W3C//DTD SVG 1.1//EN" "http://www.w3.org/Graphics/SVG/1.1/DTD/svg11.dtd">
<!-- Uploaded to: SVG Repo, www.svgrepo.com, Transformed by: SVG Repo Mixer Tools -->
<svg width="800px" height="800px" viewBox="-2.4 -2.4 28.80 28.80" version="1.1" xmlns="http://www.w3.org/2000/svg" xmlns:xlink="http://www.w3.org/1999/xlink" fill="#000000">
<g id="SVGRepo_bgCarrier" stroke-width="0">
<path transform="translate(-2.4, -2.4), scale(0.8999999999999999)" d="M16,26.377533012535423C17.873407139872974,26.008908816375637,19.92104660787534,27.578153642432824,21.633513521244524,26.73376322305485C23.34272967492089,25.89097570199794,23.362317952608368,23.33817845842952,24.769738405458547,22.0533133547955C26.718326698479494,20.2744042207253,31.188198404680996,20.497303098671278,31.34955667500777,17.863773613061934C31.516583525838573,15.137727184449393,26.982729605516905,14.646340039501776,25.358082357743903,12.45094749597949C24.284272145995498,10.999903316843366,24.629281420156676,8.899075416676554,23.611938267330125,7.407897865190174C22.45456870740428,5.7114756680779575,21.089944884177065,3.9173918350879515,19.126197083935253,3.316519846937881C17.153126064896888,2.7127951192386917,15.114267145740543,3.79535942844517,13.08858858378227,4.187939556097119C10.963405815280653,4.599803776911868,8.771999366928645,4.662099352153383,6.868058599608425,5.692169005361178C4.717084167159795,6.855888762677842,1.9318696909629767,8.084792073125037,1.452970396914779,10.483039380801415C0.9519390146057793,12.992120472833673,4.245504115218454,14.849943987326878,4.531650293299899,17.392509765673946C4.821652063381774,19.96933459420749,2.147972187463149,22.49893211750171,3.077696491297319,24.919622089897516C3.971093527888457,27.24572805370379,6.592863982028902,28.926703125491056,9.068927252345874,29.206055772215883C11.585089584282326,29.48993244671047,13.515514005541284,26.866397196452052,16,26.377533012535423" fill="#d9b7f5" strokewidth="0"/>
</g>
<g id="SVGRepo_tracerCarrier" stroke-linecap="round" stroke-linejoin="round"/>
<g id="SVGRepo_iconCarrier"> <!-- Uploaded to: SVG Repo, www.svgrepo.com, Transformed by: SVG Repo Mixer Tools --> <title>ic_fluent_whiteboard_24_regular</title> <desc>Created with Sketch.</desc> <g id="ðŸ”-Product-Icons" stroke="none" stroke-width="1" fill="none" fill-rule="evenodd"> <g id="ic_fluent_whiteboard_24_regular" fill="#6e4b77" fill-rule="nonzero"> <path d="M15.989,4 L14.486,5.5 L5.25,5.5 L5.10647279,5.5058012 C4.20711027,5.57880766 3.5,6.3318266 3.5,7.25 L3.5,9.49 L6.11032966,7.8500658 C7.11458474,7.21884459 8.42578385,7.4788108 9.11805049,8.41878234 L9.21263533,8.55766707 C9.60754263,9.18595342 9.66531956,9.96466959 9.37643726,10.6398047 L9.29698911,10.8062836 L8.08925622,13.0916763 C7.8957274,13.4579003 8.03572001,13.911669 8.4019376,14.1051994 C8.59519714,14.2073288 8.82158817,14.2192865 9.02227723,14.1418514 L9.12020755,14.0956881 L10.8791978,13.102709 C11.2392458,12.8979206 11.6971362,13.0237834 11.9019246,13.3838314 C12.0896473,13.7138755 11.9995312,14.1261343 11.7058795,14.3502913 L11.6208022,14.4065583 L9.85592161,15.4028701 C9.18921021,15.7781116 8.37750848,15.7888601 7.70109472,15.4314042 C6.6502057,14.8760541 6.22026466,13.6064091 6.69296688,12.535549 L6.76304763,12.3908405 L7.97078427,10.1054407 C8.09599053,9.86851294 8.08527176,9.58278305 7.94266635,9.35590187 C7.74227866,9.03709073 7.34143087,8.9208341 7.00672527,9.06794099 L6.90856446,9.12003478 L3.5,11.262 L3.5,16.754591 C3.5,17.7210893 4.28350169,18.504591 5.25,18.504591 L18.75,18.504591 C19.7164983,18.504591 20.5,17.7210893 20.5,16.754591 L20.5,9.443 L22,7.946 L22,16.754591 C22,18.5495164 20.5449254,20.004591 18.75,20.004591 L5.25,20.004591 C3.45507456,20.004591 2,18.5495164 2,16.754591 L2,7.25 C2,5.51696854 3.35645477,4.10075407 5.06557609,4.00514479 L5.25,4 L15.989,4 Z M21.175499,3.54486123 L21.3057053,3.66549405 L21.4262125,3.79573486 C22.1894032,4.68737541 22.1487912,6.0305334 21.3046801,6.87410524 L17.0238193,11.1477533 C16.760843,11.4102865 16.4369385,11.6036013 16.0810348,11.7104319 L13.7534665,12.409092 C13.224498,12.5678711 12.6669685,12.2677732 12.5081894,11.7388048 C12.4499495,11.54478 12.4520104,11.3376424 12.5140993,11.1448148 L13.2530235,8.84996054 C13.3626608,8.50946335 13.5519023,8.20001385 13.805051,7.94727999 L18.095697,3.66366511 C18.9405104,2.82023607 20.2840592,2.78081537 21.175499,3.54486123 Z M19.155487,4.72519469 L14.864841,9.00880957 C14.7804581,9.09305419 14.7173776,9.19620402 14.6808318,9.30970309 L14.2335301,10.6988744 L15.6497924,10.2737587 C15.768427,10.2381485 15.8763951,10.1737102 15.9640539,10.0861992 L20.244074,5.81339079 L20.3188279,5.72689957 C20.5422483,5.42598751 20.517571,4.99885441 20.2447063,4.72581529 C19.9440539,4.42497074 19.456482,4.42469294 19.155487,4.72519469 Z" id="ðŸŽ¨-Color"> </path> </g> </g> </g>
</svg>